<svg xmlns="http://www.w3.org/2000/svg" id="SvgjsSvg730610" width="4096" height="2482.5604206844446" version="1.1" xmlns:xlink="http://www.w3.org/1999/xlink" xmlns:svgjs="http://svgjs.com/svgjs"><defs id="SvgjsDefs730611"></defs><g id="SvgjsG730612" transform="translate(328, 327.9999999999999) scale(34.4)" opacity="1"><defs id="SvgjsDefs188898"></defs><g id="SvgjsG188899" transform="scale(0.21739130434782608)" opacity="1"><g id="SvgjsG188900" class="EITkoJm-f" transform="translate(111.42886962028216, -46.21651197822352) scale(2.407950000816734)" light-content="false" non-strokable="false" fill="#316cc4"><path d="M87.533 46.84l-24.901-7.936c-.388-1.711-1.701-1.201-1.701-1.201-.729-.464-1.055-.32-1.055-.32-.214-.214-1.33-.101-1.33-.101-.285-1.933-1.772-1.95-2.044-2.038-1.45-.47-1.979-1.11-1.979-1.11-.546-.547-1.585-1.028-1.585-1.028-.178-.795-1.568-.571-1.568-.571-.946-1.612-5.227-3.469-5.227-3.469s.506-.02.736-.633c.856-2.287-1.734-1.771-1.734-2.36 0-.428.184-3.045-.38-3.754-5.026-6.32-10.917-1.557-11.31 1.235 0 0-3.291 1.557-4.106 2.373-.288.287-1.845 2.582-2.049 3.989-.101.7-.652 14.253-.652 15.232 0 .979-.671 2.651 0 2.756.967.151 2.012.562 2.012.562s-.181 1.45-.181 3.408c0 1.959 1.076 4.515 1.487 5.133.816 1.227 1.904 1.741 1.904 1.741-.272 1.034-.198 8.413-.198 8.413l-.183.998c-.371 0-.055.871-.055.871-5.332-.619-6.745 1.467-7.235 1.467-.489 0-5.658.328-5.658.709l.163.543s-1.636.219-2.23.219c-.409-.982-1.105-.691-2.275-1.324-1.895-1.023-2.648.318-2.648.318-.299.299.299 11.232.299 11.777 0 .982 2.938 1.631 3.209-.381.058-.432.016-3.537.762-3.318.295.086.489 1.088.489 1.088.529-.529 1.958-2.721 1.958-2.992s.155-.824 0-.98c0 0 1.333-.625 1.578-.379.245.244 0 .76.435.76.436 0 13.319-1.365 14.198-1.469 1.32-.152 2.26-.787 3.102-2.012 1.316-1.916 3.64-8.148 3.481-10.826l2.373.795 1.653.564c.326.328 2.176 1.088 2.176 1.088.816.816 11.053 12.203 11.764 12.078l.264.471-.113 1.379c-.476.285-.681 1.82.107 2.609l10.609.057c1.024.111.903-1.35.903-1.35-.217-1.926-2.581-1.555-2.932-1.756-.954-.547-.625-1.812-.625-1.812-.772-.773-2.709-1.498-2.709-1.498h-1.021l-1.497-1.973v-.334c-3.338-3.67-8.411-10.596-8.411-10.596-.839-2.023-.759-1.441-1.711-2.804-2.853-4.087-10.834-8.317-10.834-8.317.428-.428-.047-2.329-.047-2.329.38-.38.158-1.535.158-1.535.772-.773 1.602-2.599 1.602-2.599.553 0 2.63.769 3.327 1.236.589.395 2.468.308 2.756.143.703-.404 1.266-1.068 1.266-1.068s.918-.061 1.22-.105c1.39-.203 3.06-1.952 5.516-2.794 0 0 .645-.104 1.646-.214.425-.047.854 0 1.425 0 .879 0 .749-.455.749-.455s1.423.133 1.808.065a.628.628 0 0 0 .485-.418c.284 0 21.093 7.954 23.094 8.696 2.089.775 2.768-1.996 1.47-2.614zm-38.091-6.193s-.514-.682-1.291-.682c0 0-.653-.319-1.096-.319 0 0-2.013-1.57-2.697-2.254 0 0-.001-1.878-1.228-2.308 0 0-1.613-1.703-1.306-2.702 0 0 3.602 1.733 5.06 1.288 0 0 2.525 1.092 3.648 1.092 0 0 .071.423.758.718 0 0 .59 1.019 1.577 1.019 0 0 .083 1.534 1.36 1.415 0 0 .033.544.599.544 0 0 .086.391.564.871.002-.001-1.15 1.227-5.948 1.318z"></path></g><g id="SvgjsG188901" class="text" transform="translate(64.64, 243.5065381191879) scale(1)" light-content="false" fill="#141414"><path d="M-64.64 -1.04C-64.64 -0.35 -64.32 0 -63.68 0L-41.71 0C-34.54 0 -28.67 -1.24 -24.12 -3.71C-19.57 -6.18 -17.29 -10.49 -17.29 -16.62C-17.29 -19.4 -18.06 -21.68 -19.59 -23.49C-21.13 -25.3 -23.5 -26.67 -26.72 -27.61C-27.01 -27.71 -27.14 -27.84 -27.09 -28.02C-27.04 -28.19 -26.84 -28.3 -26.5 -28.35C-22.88 -29.54 -20.06 -31.27 -18.03 -33.55C-16.01 -35.82 -14.99 -38.72 -14.99 -42.23C-14.99 -46.39 -16.77 -49.56 -20.34 -51.77C-23.9 -53.97 -29.02 -55.07 -35.7 -55.07L-55.74 -55.07C-56.23 -55.07 -56.6 -54.98 -56.85 -54.81C-57.1 -54.64 -57.25 -54.3 -57.3 -53.81L-64.57 -1.71ZM-37.78 -32.36L-46.46 -32.36C-46.95 -32.36 -47.2 -32.56 -47.2 -32.95L-47.13 -33.4L-45.57 -44.98C-45.47 -45.42 -45.31 -45.75 -45.09 -45.98C-44.86 -46.2 -44.48 -46.31 -43.94 -46.31L-36.07 -46.31C-33.55 -46.31 -31.57 -45.84 -30.13 -44.9C-28.7 -43.96 -27.98 -42.6 -27.98 -40.82C-27.98 -38.3 -28.94 -36.25 -30.87 -34.7C-32.8 -33.14 -35.1 -32.36 -37.78 -32.36ZM-41.64 -8.76L-49.73 -8.76C-50.02 -8.76 -50.23 -8.79 -50.36 -8.87C-50.48 -8.94 -50.54 -9.13 -50.54 -9.43L-50.47 -9.8L-48.76 -22.04C-48.66 -22.54 -48.53 -22.87 -48.35 -23.04C-48.18 -23.22 -47.85 -23.3 -47.35 -23.3L-38.52 -23.3C-36 -23.3 -34.03 -22.85 -32.62 -21.93C-31.21 -21.02 -30.5 -19.64 -30.5 -17.81C-30.5 -14.89 -31.62 -12.65 -33.84 -11.1C-36.07 -9.54 -38.67 -8.76 -41.64 -8.76Z M8.39 -55.07L-2.45 -55.07C-2.84 -55.07 -3.12 -55.01 -3.27 -54.88C-3.41 -54.76 -3.51 -54.45 -3.56 -53.96L-10.91 -1.86C-11.01 -1.26 -10.97 -0.8 -10.8 -0.48C-10.63 -0.16 -10.24 0 -9.65 0L0.07 0C0.82 0 1.31 -0.09 1.56 -0.26C1.81 -0.43 1.95 -0.84 2 -1.48L9.28 -53.44C9.43 -54.52 9.13 -55.07 8.39 -55.07Z M19.74 -5.31C23.65 -1.27 29.12 0.74 36.14 0.74C41.19 0.74 45.74 -0.36 49.8 -2.56C53.86 -4.76 57.18 -7.94 59.78 -12.1C62.38 -16.25 64.07 -21.15 64.87 -26.79C65.16 -28.38 65.31 -30.33 65.31 -32.66C65.31 -37.41 64.43 -41.52 62.68 -45.01C60.92 -48.5 58.37 -51.17 55.03 -53.03C51.69 -54.88 47.75 -55.81 43.19 -55.81C38.15 -55.81 33.58 -54.7 29.5 -52.47C25.42 -50.24 22.05 -47.03 19.41 -42.82C16.76 -38.62 15.04 -33.67 14.25 -27.98C14 -26.25 13.88 -24.27 13.88 -22.04C13.88 -14.92 15.83 -9.34 19.74 -5.31ZM46.46 -13.03C44.04 -9.93 40.72 -8.39 36.51 -8.39C33.3 -8.39 30.92 -9.28 29.39 -11.06C27.86 -12.84 27.09 -15.68 27.09 -19.59C27.09 -21.37 27.29 -23.7 27.68 -26.57C28.67 -33.5 30.4 -38.59 32.88 -41.86C35.35 -45.12 38.69 -46.76 42.9 -46.76C46.01 -46.76 48.32 -45.83 49.8 -43.97C51.28 -42.12 52.03 -39.19 52.03 -35.18C52.03 -32.9 51.85 -30.45 51.51 -27.83C50.57 -21.05 48.88 -16.12 46.46 -13.03Z"></path></g><g id="SvgjsG188902" class="text" transform="translate(301.86150650564787, 243.5065381191879) scale(1)" light-content="false" fill="#316cc4"><path d="M-155.56 -0.22C-155.39 -0.07 -155.08 0 -154.63 0L-145.21 0C-144.76 0 -144.43 -0.07 -144.2 -0.22C-143.98 -0.37 -143.84 -0.67 -143.8 -1.11L-138.82 -36.22C-138.82 -36.37 -138.79 -36.5 -138.71 -36.63C-138.64 -36.75 -138.55 -36.81 -138.45 -36.81C-138.25 -36.81 -138.08 -36.56 -137.93 -36.07L-131.1 -1.56C-130.96 -0.96 -130.77 -0.56 -130.55 -0.33C-130.32 -0.11 -129.99 0 -129.55 0L-122.49 0C-122.05 0 -121.72 -0.06 -121.49 -0.19C-121.27 -0.31 -121.06 -0.57 -120.86 -0.96L-104.01 -36.29C-103.77 -36.74 -103.6 -36.96 -103.5 -36.96C-103.4 -36.96 -103.35 -36.89 -103.35 -36.74L-103.35 -36.44L-108.25 -2.08C-108.34 -1.29 -108.25 -0.74 -107.95 -0.45C-107.65 -0.15 -107.16 0 -106.46 0L-95.33 0C-94.54 0 -94.02 -0.09 -93.77 -0.26C-93.53 -0.43 -93.35 -0.87 -93.25 -1.56L-85.91 -53.96C-85.76 -54.7 -86.05 -55.07 -86.8 -55.07L-106.09 -55.07C-106.54 -55.07 -106.9 -54.96 -107.17 -54.73C-107.44 -54.51 -107.68 -54.08 -107.87 -53.44L-120.64 -26.5C-120.79 -26.15 -120.96 -25.98 -121.16 -25.98C-121.36 -25.98 -121.46 -26.12 -121.46 -26.42L-127.1 -53.51C-127.34 -54.55 -127.94 -55.07 -128.88 -55.07L-147.13 -55.07C-147.63 -55.07 -147.94 -55.01 -148.06 -54.88C-148.19 -54.76 -148.3 -54.43 -148.4 -53.88L-155.67 -2.3L-155.82 -1.11C-155.82 -0.67 -155.73 -0.37 -155.56 -0.22Z M-72.03 -2.04C-68.56 -0.19 -64.43 0.74 -59.63 0.74C-54.49 0.74 -49.85 -0.36 -45.72 -2.56C-41.59 -4.76 -38.18 -7.93 -35.51 -12.06C-32.84 -16.19 -31.11 -21.05 -30.32 -26.64C-30.07 -28.28 -29.95 -30.16 -29.95 -32.28C-29.95 -37.08 -30.86 -41.25 -32.69 -44.79C-34.52 -48.33 -37.16 -51.05 -40.6 -52.95C-44.04 -54.86 -48.1 -55.81 -52.81 -55.81C-57.95 -55.81 -62.6 -54.69 -66.76 -52.43C-70.91 -50.18 -74.34 -46.97 -77.04 -42.79C-79.73 -38.61 -81.48 -33.69 -82.27 -28.05C-82.52 -26.37 -82.64 -24.47 -82.64 -22.34C-82.64 -17.59 -81.74 -13.48 -79.93 -10.02C-78.13 -6.56 -75.49 -3.9 -72.03 -2.04ZM-50.39 -13.95C-52.5 -11.08 -55.45 -9.65 -59.26 -9.65C-62.03 -9.65 -64.06 -10.42 -65.35 -11.95C-66.63 -13.48 -67.28 -15.98 -67.28 -19.44C-67.28 -21.57 -67.1 -23.92 -66.76 -26.5C-65.82 -33.08 -64.25 -37.89 -62.05 -40.93C-59.84 -43.97 -56.86 -45.49 -53.1 -45.49C-50.43 -45.49 -48.46 -44.68 -47.2 -43.05C-45.94 -41.41 -45.31 -38.82 -45.31 -35.25C-45.31 -32.98 -45.48 -30.53 -45.83 -27.91C-46.77 -21.47 -48.29 -16.82 -50.39 -13.95Z M-24.6 -53.96L-25.79 -45.49C-25.84 -45.05 -25.78 -44.75 -25.6 -44.6C-25.43 -44.46 -25.12 -44.38 -24.68 -44.38L-10.8 -44.38C-10.3 -44.38 -10.06 -44.16 -10.06 -43.71L-10.06 -43.49L-15.99 -1.78C-16.04 -1.58 -16.07 -1.36 -16.07 -1.11C-16.07 -0.72 -15.96 -0.43 -15.73 -0.26C-15.51 -0.09 -15.15 0 -14.66 0L-2.34 0C-1.55 0 -1.13 -0.45 -1.08 -1.34L4.86 -43.19C4.96 -43.69 5.08 -44.01 5.23 -44.16C5.38 -44.31 5.68 -44.38 6.12 -44.38L19.63 -44.38C20.08 -44.38 20.4 -44.44 20.6 -44.57C20.79 -44.69 20.92 -44.93 20.97 -45.27L22.23 -53.88C22.28 -54.33 22.24 -54.64 22.12 -54.81C21.99 -54.98 21.66 -55.07 21.11 -55.07L-23.04 -55.07C-23.59 -55.07 -23.96 -54.99 -24.16 -54.85C-24.36 -54.7 -24.5 -54.4 -24.6 -53.96Z M42.93 -55.07L30.24 -55.07C29.85 -55.07 29.56 -54.99 29.39 -54.85C29.22 -54.7 29.11 -54.38 29.06 -53.88L21.71 -2.08L21.63 -1.41C21.63 -0.47 22.13 0 23.12 0L34.47 0C35.27 0 35.81 -0.09 36.11 -0.26C36.4 -0.43 36.58 -0.87 36.63 -1.56L43.9 -53.21C44.05 -54.45 43.73 -55.07 42.93 -55.07Z M57.85 -2.04C61.32 -0.19 65.45 0.74 70.25 0.74C75.39 0.74 80.03 -0.36 84.16 -2.56C88.29 -4.76 91.69 -7.93 94.37 -12.06C97.04 -16.19 98.77 -21.05 99.56 -26.64C99.81 -28.28 99.93 -30.16 99.93 -32.28C99.93 -37.08 99.02 -41.25 97.19 -44.79C95.36 -48.33 92.72 -51.05 89.28 -52.95C85.84 -54.86 81.77 -55.81 77.07 -55.81C71.93 -55.81 67.28 -54.69 63.12 -52.43C58.97 -50.18 55.54 -46.97 52.84 -42.79C50.15 -38.61 48.4 -33.69 47.61 -28.05C47.36 -26.37 47.24 -24.47 47.24 -22.34C47.24 -17.59 48.14 -13.48 49.95 -10.02C51.75 -6.56 54.39 -3.9 57.85 -2.04ZM79.49 -13.95C77.38 -11.08 74.43 -9.65 70.62 -9.65C67.85 -9.65 65.82 -10.42 64.53 -11.95C63.25 -13.48 62.6 -15.98 62.6 -19.44C62.6 -21.57 62.78 -23.92 63.12 -26.5C64.06 -33.08 65.63 -37.89 67.83 -40.93C70.04 -43.97 73.02 -45.49 76.78 -45.49C79.45 -45.49 81.42 -44.68 82.68 -43.05C83.94 -41.41 84.57 -38.82 84.57 -35.25C84.57 -32.98 84.4 -30.53 84.05 -27.91C83.11 -21.47 81.59 -16.82 79.49 -13.95Z M157.23 -55.07L147.36 -55.07C146.86 -55.07 146.54 -55.01 146.39 -54.88C146.24 -54.76 146.12 -54.48 146.02 -54.03L142.09 -26.2C142.04 -25.9 141.95 -25.67 141.83 -25.49C141.7 -25.32 141.57 -25.23 141.42 -25.23C141.22 -25.23 141 -25.43 140.75 -25.83L124.8 -53.51C124.5 -54.05 124.2 -54.45 123.91 -54.7C123.61 -54.95 123.19 -55.07 122.64 -55.07L112.03 -55.07C111.54 -55.07 111.21 -55.01 111.07 -54.88C110.92 -54.76 110.79 -54.43 110.69 -53.88L103.27 -1.78C103.12 -0.59 103.5 0 104.39 0L113.89 0C114.48 0 114.89 -0.09 115.11 -0.26C115.33 -0.43 115.47 -0.77 115.52 -1.26L119.75 -31.17C119.85 -31.76 120.02 -32.06 120.27 -32.06C120.42 -32.06 120.57 -31.94 120.71 -31.69L138.6 -1.34C138.9 -0.89 139.17 -0.56 139.42 -0.33C139.66 -0.11 139.96 0 140.31 0L149.21 0C149.71 0 150.05 -0.06 150.25 -0.19C150.45 -0.31 150.57 -0.54 150.62 -0.89L158.12 -53.96C158.22 -54.7 157.92 -55.07 157.23 -55.07Z"></path></g></g></g></svg>